<?xml version="1.0" encoding="utf-8" standalone="no"?>
<!DOCTYPE svg PUBLIC "-//W3C//DTD SVG 1.1//EN"
  "http://www.w3.org/Graphics/SVG/1.1/DTD/svg11.dtd">
<!-- Created with matplotlib (http://matplotlib.org/) -->
<svg height="360pt" version="1.1" viewBox="0 0 360 360" width="360pt" xmlns="http://www.w3.org/2000/svg" xmlns:xlink="http://www.w3.org/1999/xlink">
 <defs>
  <style type="text/css">
*{stroke-linecap:butt;stroke-linejoin:round;}
  </style>
 </defs>
 <g id="figure_1">
  <g id="patch_1">
   <path d="M 0 360 
L 360 360 
L 360 0 
L 0 0 
z
" style="fill:#ffffff;"/>
  </g>
  <g id="axes_1">
   <g id="patch_2">
    <path d="M 62.4375 196.0875 
C 67.061979 196.0875 71.497674 194.29759 74.767674 191.111976 
C 78.037675 187.926363 79.875 183.605138 79.875 179.1 
C 79.875 174.594862 78.037675 170.273637 74.767674 167.088024 
C 71.497674 163.90241 67.061979 162.1125 62.4375 162.1125 
C 57.813021 162.1125 53.377326 163.90241 50.107326 167.088024 
C 46.837325 170.273637 45 174.594862 45 179.1 
C 45 183.605138 46.837325 187.926363 50.107326 191.111976 
C 53.377326 194.29759 57.813021 196.0875 62.4375 196.0875 
z
" style="fill:none;stroke:#000000;stroke-linejoin:miter;"/>
   </g>
   <g id="patch_3">
    <path d="M 97.3125 196.0875 
C 101.936979 196.0875 106.372674 194.29759 109.642674 191.111976 
C 112.912675 187.926363 114.75 183.605138 114.75 179.1 
C 114.75 174.594862 112.912675 170.273637 109.642674 167.088024 
C 106.372674 163.90241 101.936979 162.1125 97.3125 162.1125 
C 92.688021 162.1125 88.252326 163.90241 84.982326 167.088024 
C 81.712325 170.273637 79.875 174.594862 79.875 179.1 
C 79.875 183.605138 81.712325 187.926363 84.982326 191.111976 
C 88.252326 194.29759 92.688021 196.0875 97.3125 196.0875 
z
" style="fill:none;stroke:#000000;stroke-linejoin:miter;"/>
   </g>
   <g id="patch_4">
    <path d="M 132.1875 196.0875 
C 136.811979 196.0875 141.247674 194.29759 144.517674 191.111976 
C 147.787675 187.926363 149.625 183.605138 149.625 179.1 
C 149.625 174.594862 147.787675 170.273637 144.517674 167.088024 
C 141.247674 163.90241 136.811979 162.1125 132.1875 162.1125 
C 127.563021 162.1125 123.127326 163.90241 119.857326 167.088024 
C 116.587325 170.273637 114.75 174.594862 114.75 179.1 
C 114.75 183.605138 116.587325 187.926363 119.857326 191.111976 
C 123.127326 194.29759 127.563021 196.0875 132.1875 196.0875 
z
" style="fill:none;stroke:#000000;stroke-linejoin:miter;"/>
   </g>
   <g id="patch_5">
    <path d="M 167.0625 196.0875 
C 171.686979 196.0875 176.122674 194.29759 179.392674 191.111976 
C 182.662675 187.926363 184.5 183.605138 184.5 179.1 
C 184.5 174.594862 182.662675 170.273637 179.392674 167.088024 
C 176.122674 163.90241 171.686979 162.1125 167.0625 162.1125 
C 162.438021 162.1125 158.002326 163.90241 154.732326 167.088024 
C 151.462325 170.273637 149.625 174.594862 149.625 179.1 
C 149.625 183.605138 151.462325 187.926363 154.732326 191.111976 
C 158.002326 194.29759 162.438021 196.0875 167.0625 196.0875 
z
" style="fill:none;stroke:#000000;stroke-linejoin:miter;"/>
   </g>
   <g id="patch_6">
    <path d="M 201.9375 196.0875 
C 206.561979 196.0875 210.997674 194.29759 214.267674 191.111976 
C 217.537675 187.926363 219.375 183.605138 219.375 179.1 
C 219.375 174.594862 217.537675 170.273637 214.267674 167.088024 
C 210.997674 163.90241 206.561979 162.1125 201.9375 162.1125 
C 197.313021 162.1125 192.877326 163.90241 189.607326 167.088024 
C 186.337325 170.273637 184.5 174.594862 184.5 179.1 
C 184.5 183.605138 186.337325 187.926363 189.607326 191.111976 
C 192.877326 194.29759 197.313021 196.0875 201.9375 196.0875 
z
" style="fill:none;stroke:#000000;stroke-linejoin:miter;"/>
   </g>
   <g id="patch_7">
    <path d="M 236.8125 196.0875 
C 241.436979 196.0875 245.872674 194.29759 249.142674 191.111976 
C 252.412675 187.926363 254.25 183.605138 254.25 179.1 
C 254.25 174.594862 252.412675 170.273637 249.142674 167.088024 
C 245.872674 163.90241 241.436979 162.1125 236.8125 162.1125 
C 232.188021 162.1125 227.752326 163.90241 224.482326 167.088024 
C 221.212325 170.273637 219.375 174.594862 219.375 179.1 
C 219.375 183.605138 221.212325 187.926363 224.482326 191.111976 
C 227.752326 194.29759 232.188021 196.0875 236.8125 196.0875 
z
" style="fill:none;stroke:#000000;stroke-linejoin:miter;"/>
   </g>
   <g id="patch_8">
    <path d="M 271.6875 196.0875 
C 276.311979 196.0875 280.747674 194.29759 284.017674 191.111976 
C 287.287675 187.926363 289.125 183.605138 289.125 179.1 
C 289.125 174.594862 287.287675 170.273637 284.017674 167.088024 
C 280.747674 163.90241 276.311979 162.1125 271.6875 162.1125 
C 267.063021 162.1125 262.627326 163.90241 259.357326 167.088024 
C 256.087325 170.273637 254.25 174.594862 254.25 179.1 
C 254.25 183.605138 256.087325 187.926363 259.357326 191.111976 
C 262.627326 194.29759 267.063021 196.0875 271.6875 196.0875 
z
" style="fill:none;stroke:#000000;stroke-linejoin:miter;"/>
   </g>
   <g id="text_1">
    <!-- 0 -->
    <defs>
     <path d="M 31.78125 66.40625 
Q 24.171875 66.40625 20.328125 58.90625 
Q 16.5 51.421875 16.5 36.375 
Q 16.5 21.390625 20.328125 13.890625 
Q 24.171875 6.390625 31.78125 6.390625 
Q 39.453125 6.390625 43.28125 13.890625 
Q 47.125 21.390625 47.125 36.375 
Q 47.125 51.421875 43.28125 58.90625 
Q 39.453125 66.40625 31.78125 66.40625 
z
M 31.78125 74.21875 
Q 44.046875 74.21875 50.515625 64.515625 
Q 56.984375 54.828125 56.984375 36.375 
Q 56.984375 17.96875 50.515625 8.265625 
Q 44.046875 -1.421875 31.78125 -1.421875 
Q 19.53125 -1.421875 13.0625 8.265625 
Q 6.59375 17.96875 6.59375 36.375 
Q 6.59375 54.828125 13.0625 64.515625 
Q 19.53125 74.21875 31.78125 74.21875 
z
" id="DejaVuSans-30"/>
    </defs>
    <g transform="translate(58.62 182.41125)scale(0.12 -0.12)">
     <use xlink:href="#DejaVuSans-30"/>
    </g>
   </g>
   <g id="text_2">
    <!-- 1 -->
    <defs>
     <path d="M 12.40625 8.296875 
L 28.515625 8.296875 
L 28.515625 63.921875 
L 10.984375 60.40625 
L 10.984375 69.390625 
L 28.421875 72.90625 
L 38.28125 72.90625 
L 38.28125 8.296875 
L 54.390625 8.296875 
L 54.390625 0 
L 12.40625 0 
z
" id="DejaVuSans-31"/>
    </defs>
    <g transform="translate(93.495 182.41125)scale(0.12 -0.12)">
     <use xlink:href="#DejaVuSans-31"/>
    </g>
   </g>
   <g id="text_3">
    <!-- 2 -->
    <defs>
     <path d="M 19.1875 8.296875 
L 53.609375 8.296875 
L 53.609375 0 
L 7.328125 0 
L 7.328125 8.296875 
Q 12.9375 14.109375 22.625 23.890625 
Q 32.328125 33.6875 34.8125 36.53125 
Q 39.546875 41.84375 41.421875 45.53125 
Q 43.3125 49.21875 43.3125 52.78125 
Q 43.3125 58.59375 39.234375 62.25 
Q 35.15625 65.921875 28.609375 65.921875 
Q 23.96875 65.921875 18.8125 64.3125 
Q 13.671875 62.703125 7.8125 59.421875 
L 7.8125 69.390625 
Q 13.765625 71.78125 18.9375 73 
Q 24.125 74.21875 28.421875 74.21875 
Q 39.75 74.21875 46.484375 68.546875 
Q 53.21875 62.890625 53.21875 53.421875 
Q 53.21875 48.921875 51.53125 44.890625 
Q 49.859375 40.875 45.40625 35.40625 
Q 44.1875 33.984375 37.640625 27.21875 
Q 31.109375 20.453125 19.1875 8.296875 
z
" id="DejaVuSans-32"/>
    </defs>
    <g transform="translate(128.37 182.41125)scale(0.12 -0.12)">
     <use xlink:href="#DejaVuSans-32"/>
    </g>
   </g>
   <g id="text_4">
    <!-- 3 -->
    <defs>
     <path d="M 40.578125 39.3125 
Q 47.65625 37.796875 51.625 33 
Q 55.609375 28.21875 55.609375 21.1875 
Q 55.609375 10.40625 48.1875 4.484375 
Q 40.765625 -1.421875 27.09375 -1.421875 
Q 22.515625 -1.421875 17.65625 -0.515625 
Q 12.796875 0.390625 7.625 2.203125 
L 7.625 11.71875 
Q 11.71875 9.328125 16.59375 8.109375 
Q 21.484375 6.890625 26.8125 6.890625 
Q 36.078125 6.890625 40.9375 10.546875 
Q 45.796875 14.203125 45.796875 21.1875 
Q 45.796875 27.640625 41.28125 31.265625 
Q 36.765625 34.90625 28.71875 34.90625 
L 20.21875 34.90625 
L 20.21875 43.015625 
L 29.109375 43.015625 
Q 36.375 43.015625 40.234375 45.921875 
Q 44.09375 48.828125 44.09375 54.296875 
Q 44.09375 59.90625 40.109375 62.90625 
Q 36.140625 65.921875 28.71875 65.921875 
Q 24.65625 65.921875 20.015625 65.03125 
Q 15.375 64.15625 9.8125 62.3125 
L 9.8125 71.09375 
Q 15.4375 72.65625 20.34375 73.4375 
Q 25.25 74.21875 29.59375 74.21875 
Q 40.828125 74.21875 47.359375 69.109375 
Q 53.90625 64.015625 53.90625 55.328125 
Q 53.90625 49.265625 50.4375 45.09375 
Q 46.96875 40.921875 40.578125 39.3125 
z
" id="DejaVuSans-33"/>
    </defs>
    <g transform="translate(163.245 182.41125)scale(0.12 -0.12)">
     <use xlink:href="#DejaVuSans-33"/>
    </g>
   </g>
   <g id="text_5">
    <!-- 4 -->
    <defs>
     <path d="M 37.796875 64.3125 
L 12.890625 25.390625 
L 37.796875 25.390625 
z
M 35.203125 72.90625 
L 47.609375 72.90625 
L 47.609375 25.390625 
L 58.015625 25.390625 
L 58.015625 17.1875 
L 47.609375 17.1875 
L 47.609375 0 
L 37.796875 0 
L 37.796875 17.1875 
L 4.890625 17.1875 
L 4.890625 26.703125 
z
" id="DejaVuSans-34"/>
    </defs>
    <g transform="translate(198.12 182.41125)scale(0.12 -0.12)">
     <use xlink:href="#DejaVuSans-34"/>
    </g>
   </g>
   <g id="text_6">
    <!-- 5 -->
    <defs>
     <path d="M 10.796875 72.90625 
L 49.515625 72.90625 
L 49.515625 64.59375 
L 19.828125 64.59375 
L 19.828125 46.734375 
Q 21.96875 47.46875 24.109375 47.828125 
Q 26.265625 48.1875 28.421875 48.1875 
Q 40.625 48.1875 47.75 41.5 
Q 54.890625 34.8125 54.890625 23.390625 
Q 54.890625 11.625 47.5625 5.09375 
Q 40.234375 -1.421875 26.90625 -1.421875 
Q 22.3125 -1.421875 17.546875 -0.640625 
Q 12.796875 0.140625 7.71875 1.703125 
L 7.71875 11.625 
Q 12.109375 9.234375 16.796875 8.0625 
Q 21.484375 6.890625 26.703125 6.890625 
Q 35.15625 6.890625 40.078125 11.328125 
Q 45.015625 15.765625 45.015625 23.390625 
Q 45.015625 31 40.078125 35.4375 
Q 35.15625 39.890625 26.703125 39.890625 
Q 22.75 39.890625 18.8125 39.015625 
Q 14.890625 38.140625 10.796875 36.28125 
z
" id="DejaVuSans-35"/>
    </defs>
    <g transform="translate(232.995 182.41125)scale(0.12 -0.12)">
     <use xlink:href="#DejaVuSans-35"/>
    </g>
   </g>
   <g id="text_7">
    <!-- 6 -->
    <defs>
     <path d="M 33.015625 40.375 
Q 26.375 40.375 22.484375 35.828125 
Q 18.609375 31.296875 18.609375 23.390625 
Q 18.609375 15.53125 22.484375 10.953125 
Q 26.375 6.390625 33.015625 6.390625 
Q 39.65625 6.390625 43.53125 10.953125 
Q 47.40625 15.53125 47.40625 23.390625 
Q 47.40625 31.296875 43.53125 35.828125 
Q 39.65625 40.375 33.015625 40.375 
z
M 52.59375 71.296875 
L 52.59375 62.3125 
Q 48.875 64.0625 45.09375 64.984375 
Q 41.3125 65.921875 37.59375 65.921875 
Q 27.828125 65.921875 22.671875 59.328125 
Q 17.53125 52.734375 16.796875 39.40625 
Q 19.671875 43.65625 24.015625 45.921875 
Q 28.375 48.1875 33.59375 48.1875 
Q 44.578125 48.1875 50.953125 41.515625 
Q 57.328125 34.859375 57.328125 23.390625 
Q 57.328125 12.15625 50.6875 5.359375 
Q 44.046875 -1.421875 33.015625 -1.421875 
Q 20.359375 -1.421875 13.671875 8.265625 
Q 6.984375 17.96875 6.984375 36.375 
Q 6.984375 53.65625 15.1875 63.9375 
Q 23.390625 74.21875 37.203125 74.21875 
Q 40.921875 74.21875 44.703125 73.484375 
Q 48.484375 72.75 52.59375 71.296875 
z
" id="DejaVuSans-36"/>
    </defs>
    <g transform="translate(267.87 182.41125)scale(0.12 -0.12)">
     <use xlink:href="#DejaVuSans-36"/>
    </g>
   </g>
  </g>
 </g>
</svg>
