<?xml version="1.0" encoding="UTF-8" standalone="no"?>
<!-- Created with matplotlib (http://matplotlib.org/) -->

<svg
   xmlns:dc="http://purl.org/dc/elements/1.1/"
   xmlns:cc="http://creativecommons.org/ns#"
   xmlns:rdf="http://www.w3.org/1999/02/22-rdf-syntax-ns#"
   xmlns:svg="http://www.w3.org/2000/svg"
   xmlns="http://www.w3.org/2000/svg"
   xmlns:xlink="http://www.w3.org/1999/xlink"
   xmlns:sodipodi="http://sodipodi.sourceforge.net/DTD/sodipodi-0.dtd"
   xmlns:inkscape="http://www.inkscape.org/namespaces/inkscape"
   height="248.34091"
   version="1.1"
   viewBox="0 0 206.42751 198.67273"
   width="258.03439"
   id="svg2"
   inkscape:version="0.48.4 r9939"
   sodipodi:docname="hexagon_glu.svg">
  <metadata
     id="metadata97">
    <rdf:RDF>
      <cc:Work
         rdf:about="">
        <dc:format>image/svg+xml</dc:format>
        <dc:type
           rdf:resource="http://purl.org/dc/dcmitype/StillImage" />
      </cc:Work>
    </rdf:RDF>
  </metadata>
  <sodipodi:namedview
     pagecolor="#ffffff"
     bordercolor="#666666"
     borderopacity="1"
     objecttolerance="10"
     gridtolerance="10"
     guidetolerance="10"
     inkscape:pageopacity="0"
     inkscape:pageshadow="2"
     inkscape:window-width="1920"
     inkscape:window-height="1050"
     id="namedview95"
     showgrid="false"
     inkscape:zoom="1.1865741"
     inkscape:cx="410.97437"
     inkscape:cy="100.60379"
     inkscape:window-x="0"
     inkscape:window-y="30"
     inkscape:window-maximized="1"
     inkscape:current-layer="axes_1"
     fit-margin-top="0"
     fit-margin-left="0"
     fit-margin-right="0"
     fit-margin-bottom="0" />
  <defs
     id="defs4"
     style="stroke-linecap:butt;stroke-linejoin:round">
    <style
       type="text/css"
       id="style6">
*{stroke-linecap:butt;stroke-linejoin:round;}
  </style>
  </defs>
  <g
     id="figure_1"
     style="stroke-linecap:butt;stroke-linejoin:round"
     transform="translate(-118.18624,-43.943636)">
    <g
       id="axes_1"
       style="stroke-linecap:butt;stroke-linejoin:round">
      <g
         id="patch_2"
         style="fill:#000000;stroke-linecap:butt;stroke-linejoin:round">
        <path
           clip-path="url(#pc18814ea85)"
           d="m 152.92416,103.74546 -34.23792,19.76727 0,39.53454 34.23792,19.76727 34.23792,-19.76727 0,-39.53454 z"
           style="fill:#000000;stroke:#000000;stroke-linecap:butt;stroke-linejoin:miter"
           id="path14"
           inkscape:connector-curvature="0" />
      </g>
      <g
         id="patch_3"
         style="fill:#000000;stroke:#ffffff;stroke-linecap:butt;stroke-linejoin:round">
        <path
           clip-path="url(#pc18814ea85)"
           d="m 187.16208,44.443636 -34.23792,19.767273 0,39.534551 34.23792,19.76727 34.23792,-19.76727 0,-39.534551 z"
           style="fill:#000000;stroke:#ffffff;stroke-linecap:butt;stroke-linejoin:miter"
           id="path17"
           inkscape:connector-curvature="0" />
      </g>
      <g
         id="patch_4"
         style="fill:#000000;stroke:#ffffff;stroke-linecap:butt;stroke-linejoin:round">
        <path
           clip-path="url(#pc18814ea85)"
           d="M 255.63792,44.443636 221.4,64.210909 l 0,39.534551 34.23792,19.76727 34.23792,-19.76727 0,-39.534551 z"
           style="fill:#000000;stroke:#ffffff;stroke-linecap:butt;stroke-linejoin:miter"
           id="path20"
           inkscape:connector-curvature="0" />
      </g>
      <g
         id="patch_5"
         style="fill:#000000;stroke:#ffffff;stroke-linecap:butt;stroke-linejoin:round">
        <path
           clip-path="url(#pc18814ea85)"
           d="m 289.87584,103.74546 -34.23792,19.76727 0,39.53454 34.23792,19.76727 34.23792,-19.76727 0,-39.53454 z"
           style="fill:#000000;stroke:#ffffff;stroke-linecap:butt;stroke-linejoin:miter"
           id="path23"
           inkscape:connector-curvature="0" />
      </g>
      <g
         id="patch_6"
         style="fill:#000000;stroke:#ffffff;stroke-linecap:butt;stroke-linejoin:round">
        <path
           clip-path="url(#pc18814ea85)"
           d="M 255.63792,163.04727 221.4,182.81454 l 0,39.53455 34.23792,19.76727 34.23792,-19.76727 0,-39.53455 z"
           style="fill:#000000;stroke:#ffffff;stroke-linecap:butt;stroke-linejoin:miter"
           id="path26"
           inkscape:connector-curvature="0" />
      </g>
      <g
         id="patch_7"
         style="fill:#000000;stroke:#ffffff;stroke-linecap:butt;stroke-linejoin:round">
        <path
           clip-path="url(#pc18814ea85)"
           d="m 187.16208,163.04727 -34.23792,19.76727 0,39.53455 34.23792,19.76727 34.23792,-19.76727 0,-39.53455 z"
           style="fill:#000000;stroke:#ffffff;stroke-linecap:butt;stroke-linejoin:miter"
           id="path29"
           inkscape:connector-curvature="0" />
      </g>
      <g
         id="patch_8"
         style="stroke-linecap:butt;stroke-linejoin:round">
        <path
           clip-path="url(#pc18814ea85)"
           d="m 221.4,103.74546 -34.23792,19.76727 0,39.53454 34.23792,19.76727 34.23792,-19.76727 0,-39.53454 z"
           style="fill:none;stroke:#000000;stroke-linecap:butt;stroke-linejoin:miter"
           id="path32"
           inkscape:connector-curvature="0" />
      </g>
      <g
         id="text_1"
         style="fill:#ffffff;stroke-linecap:butt;stroke-linejoin:round">
        <!-- 0 -->
        <defs
           id="defs35">
          <path
             d="m 31.78125,66.40625 q -7.609375,0 -11.453125,-7.5 Q 16.5,51.421875 16.5,36.375 q 0,-14.984375 3.828125,-22.484375 3.84375,-7.5 11.453125,-7.5 7.671875,0 11.5,7.5 3.84375,7.5 3.84375,22.484375 0,15.046875 -3.84375,22.53125 -3.828125,7.5 -11.5,7.5 z m 0,7.8125 q 12.265625,0 18.734375,-9.703125 6.46875,-9.6875 6.46875,-28.140625 0,-18.40625 -6.46875,-28.109375 -6.46875,-9.6875 -18.734375,-9.6875 -12.25,0 -18.71875,9.6875 Q 6.59375,17.96875 6.59375,36.375 q 0,18.453125 6.46875,28.140625 6.46875,9.703125 18.71875,9.703125 z"
             id="DejaVuSans-30"
             inkscape:connector-curvature="0"
             style="stroke-linecap:butt;stroke-linejoin:round" />
        </defs>
        <g
           transform="matrix(0.15,0,0,-0.15,148.15228,147.41906)"
           id="g38"
           style="fill:#ffffff;stroke-linecap:butt;stroke-linejoin:round">
          <use
             xlink:href="#DejaVuSans-30"
             id="use40"
             style="fill:#ffffff;stroke-linecap:butt;stroke-linejoin:round"
             x="0"
             y="0"
             width="432"
             height="288" />
        </g>
      </g>
      <g
         id="text_2"
         style="fill:#ffffff;stroke-linecap:butt;stroke-linejoin:round">
        <!-- 1 -->
        <defs
           id="defs43">
          <path
             d="m 12.40625,8.296875 16.109375,0 0,55.625 -17.53125,-3.515625 0,8.984375 17.4375,3.515625 9.859375,0 0,-64.609375 16.109375,0 0,-8.296875 -41.984375,0 z"
             id="DejaVuSans-31"
             inkscape:connector-curvature="0"
             style="stroke-linecap:butt;stroke-linejoin:round" />
        </defs>
        <g
           transform="matrix(0.15,0,0,-0.15,182.3902,88.117244)"
           id="g46"
           style="fill:#ffffff;stroke-linecap:butt;stroke-linejoin:round">
          <use
             xlink:href="#DejaVuSans-31"
             id="use48"
             style="fill:#ffffff;stroke-linecap:butt;stroke-linejoin:round"
             x="0"
             y="0"
             width="432"
             height="288" />
        </g>
      </g>
      <g
         id="text_3"
         style="fill:#ffffff;stroke-linecap:butt;stroke-linejoin:round">
        <!-- 2 -->
        <defs
           id="defs51">
          <path
             d="m 19.1875,8.296875 34.421875,0 0,-8.296875 -46.28125,0 0,8.296875 q 5.609375,5.8125 15.296875,15.59375 9.703125,9.796875 12.1875,12.640625 4.734375,5.3125 6.609375,9 1.890625,3.6875 1.890625,7.25 0,5.8125 -4.078125,9.46875 -4.078125,3.671875 -10.625,3.671875 -4.640625,0 -9.796875,-1.609375 -5.140625,-1.609375 -11,-4.890625 l 0,9.96875 Q 13.765625,71.78125 18.9375,73 q 5.1875,1.21875 9.484375,1.21875 11.328125,0 18.0625,-5.671875 6.734375,-5.65625 6.734375,-15.125 0,-4.5 -1.6875,-8.53125 Q 49.859375,40.875 45.40625,35.40625 44.1875,33.984375 37.640625,27.21875 31.109375,20.453125 19.1875,8.296875 z"
             id="DejaVuSans-32"
             inkscape:connector-curvature="0"
             style="stroke-linecap:butt;stroke-linejoin:round" />
        </defs>
        <g
           transform="matrix(0.15,0,0,-0.15,250.86605,88.117244)"
           id="g54"
           style="fill:#ffffff;stroke-linecap:butt;stroke-linejoin:round">
          <use
             xlink:href="#DejaVuSans-32"
             id="use56"
             style="fill:#ffffff;stroke-linecap:butt;stroke-linejoin:round"
             x="0"
             y="0"
             width="432"
             height="288" />
        </g>
      </g>
      <g
         id="text_4"
         style="fill:#ffffff;stroke-linecap:butt;stroke-linejoin:round">
        <!-- 3 -->
        <defs
           id="defs59">
          <path
             d="M 40.578125,39.3125 Q 47.65625,37.796875 51.625,33 q 3.984375,-4.78125 3.984375,-11.8125 0,-10.78125 -7.421875,-16.703125 -7.421875,-5.90625 -21.09375,-5.90625 -4.578125,0 -9.4375,0.90625 -4.859375,0.90625 -10.03125,2.71875 l 0,9.515625 q 4.09375,-2.390625 8.96875,-3.609375 4.890625,-1.21875 10.21875,-1.21875 9.265625,0 14.125,3.65625 4.859375,3.65625 4.859375,10.640625 0,6.453125 -4.515625,10.078125 -4.515625,3.640625 -12.5625,3.640625 l -8.5,0 0,8.109375 8.890625,0 q 7.265625,0 11.125,2.90625 3.859375,2.90625 3.859375,8.375 0,5.609375 -3.984375,8.609375 -3.96875,3.015625 -11.390625,3.015625 -4.0625,0 -8.703125,-0.890625 Q 15.375,64.15625 9.8125,62.3125 l 0,8.78125 q 5.625,1.5625 10.53125,2.34375 4.90625,0.78125 9.25,0.78125 11.234375,0 17.765625,-5.109375 6.546875,-5.09375 6.546875,-13.78125 0,-6.0625 -3.46875,-10.234375 -3.46875,-4.171875 -9.859375,-5.78125 z"
             id="DejaVuSans-33"
             inkscape:connector-curvature="0"
             style="stroke-linecap:butt;stroke-linejoin:round" />
        </defs>
        <g
           transform="matrix(0.15,0,0,-0.15,285.10397,147.41906)"
           id="g62"
           style="fill:#ffffff;stroke-linecap:butt;stroke-linejoin:round">
          <use
             xlink:href="#DejaVuSans-33"
             id="use64"
             style="fill:#ffffff;stroke-linecap:butt;stroke-linejoin:round"
             x="0"
             y="0"
             width="432"
             height="288" />
        </g>
      </g>
      <g
         id="text_5"
         style="fill:#ffffff;stroke-linecap:butt;stroke-linejoin:round">
        <!-- 4 -->
        <defs
           id="defs67">
          <path
             d="m 37.796875,64.3125 -24.90625,-38.921875 24.90625,0 z m -2.59375,8.59375 12.40625,0 0,-47.515625 10.40625,0 0,-8.203125 -10.40625,0 0,-17.1875 -9.8125,0 0,17.1875 -32.90625,0 0,9.515625 z"
             id="DejaVuSans-34"
             inkscape:connector-curvature="0"
             style="stroke-linecap:butt;stroke-linejoin:round" />
        </defs>
        <g
           transform="matrix(0.15,0,0,-0.15,250.86605,206.72088)"
           id="g70"
           style="fill:#ffffff;stroke-linecap:butt;stroke-linejoin:round">
          <use
             xlink:href="#DejaVuSans-34"
             id="use72"
             style="fill:#ffffff;stroke-linecap:butt;stroke-linejoin:round"
             x="0"
             y="0"
             width="432"
             height="288" />
        </g>
      </g>
      <g
         id="text_6"
         style="fill:#ffffff;stroke-linecap:butt;stroke-linejoin:round">
        <!-- 5 -->
        <defs
           id="defs75">
          <path
             d="m 10.796875,72.90625 38.71875,0 0,-8.3125 -29.6875,0 0,-17.859375 q 2.140625,0.734375 4.28125,1.09375 2.15625,0.359375 4.3125,0.359375 Q 40.625,48.1875 47.75,41.5 54.890625,34.8125 54.890625,23.390625 54.890625,11.625 47.5625,5.09375 40.234375,-1.421875 26.90625,-1.421875 q -4.59375,0 -9.359375,0.78125 -4.75,0.78125 -9.828125,2.34375 l 0,9.921875 q 4.390625,-2.390625 9.078125,-3.5625 4.6875,-1.171875 9.90625,-1.171875 8.453125,0 13.375,4.4375 4.9375,4.4375 4.9375,12.0625 0,7.609375 -4.9375,12.046875 -4.921875,4.453125 -13.375,4.453125 -3.953125,0 -7.890625,-0.875 -3.921875,-0.875 -8.015625,-2.734375 z"
             id="DejaVuSans-35"
             inkscape:connector-curvature="0"
             style="stroke-linecap:butt;stroke-linejoin:round" />
        </defs>
        <g
           transform="matrix(0.15,0,0,-0.15,182.3902,206.72088)"
           id="g78"
           style="fill:#ffffff;stroke-linecap:butt;stroke-linejoin:round">
          <use
             xlink:href="#DejaVuSans-35"
             id="use80"
             style="fill:#ffffff;stroke-linecap:butt;stroke-linejoin:round"
             x="0"
             y="0"
             width="432"
             height="288" />
        </g>
      </g>
      <g
         id="text_7"
         style="stroke-linecap:butt;stroke-linejoin:round">
        <!-- 6 -->
        <defs
           id="defs83">
          <path
             d="m 33.015625,40.375 q -6.640625,0 -10.53125,-4.546875 -3.875,-4.53125 -3.875,-12.4375 0,-7.859375 3.875,-12.4375 3.890625,-4.5625 10.53125,-4.5625 6.640625,0 10.515625,4.5625 3.875,4.578125 3.875,12.4375 0,7.90625 -3.875,12.4375 Q 39.65625,40.375 33.015625,40.375 z m 19.578125,30.921875 0,-8.984375 q -3.71875,1.75 -7.5,2.671875 -3.78125,0.9375 -7.5,0.9375 -9.765625,0 -14.921875,-6.59375 -5.140625,-6.59375 -5.875,-19.921875 2.875,4.25 7.21875,6.515625 4.359375,2.265625 9.578125,2.265625 10.984375,0 17.359375,-6.671875 6.375,-6.65625 6.375,-18.125 0,-11.234375 -6.640625,-18.03125 -6.640625,-6.78125 -17.671875,-6.78125 -12.65625,0 -19.34375,9.6875 -6.6875,9.703125 -6.6875,28.109375 0,17.28125 8.203125,27.5625 8.203125,10.28125 22.015625,10.28125 3.71875,0 7.5,-0.734375 3.78125,-0.734375 7.890625,-2.1875 z"
             id="DejaVuSans-36"
             inkscape:connector-curvature="0"
             style="stroke-linecap:butt;stroke-linejoin:round" />
        </defs>
        <g
           transform="matrix(0.15,0,0,-0.15,216.62812,147.41906)"
           id="g86"
           style="stroke-linecap:butt;stroke-linejoin:round">
          <use
             xlink:href="#DejaVuSans-36"
             id="use88"
             style="stroke-linecap:butt;stroke-linejoin:round"
             x="0"
             y="0"
             width="432"
             height="288" />
        </g>
      </g>
    </g>
  </g>
  <defs
     id="defs90">
    <clipPath
       id="pc18814ea85">
      <rect
         height="217.44"
         width="334.79999"
         x="54"
         y="34.560001"
         id="rect93"
         style="stroke-linecap:butt;stroke-linejoin:round" />
    </clipPath>
  </defs>
</svg>
