<?xml version="1.0" encoding="utf-8" standalone="no"?>
<!DOCTYPE svg PUBLIC "-//W3C//DTD SVG 1.1//EN"
  "http://www.w3.org/Graphics/SVG/1.1/DTD/svg11.dtd">
<!-- Created with matplotlib (http://matplotlib.org/) -->
<svg height="216pt" version="1.1" viewBox="0 0 216 216" width="216pt" xmlns="http://www.w3.org/2000/svg" xmlns:xlink="http://www.w3.org/1999/xlink">
 <defs>
  <style type="text/css">
*{stroke-linecap:butt;stroke-linejoin:round;}
  </style>
 </defs>
 <g id="figure_1">
  <g id="patch_1">
   <path d="M 0 216 
L 216 216 
L 216 0 
L 0 0 
z
" style="fill:none;"/>
  </g>
  <g id="axes_1">
   <g id="patch_2">
    <path clip-path="url(#pe8b31b995b)" d="M 110.7 79.558033 
C 116.914867 79.558033 122.876025 77.08884 127.270599 72.694266 
C 131.665174 68.299692 134.134366 62.338533 134.134366 56.123667 
C 134.134366 49.9088 131.665174 43.947642 127.270599 39.553067 
C 122.876025 35.158493 116.914867 32.6893 110.7 32.6893 
C 104.485133 32.6893 98.523975 35.158493 94.129401 39.553067 
C 89.734826 43.947642 87.265634 49.9088 87.265634 56.123667 
C 87.265634 62.338533 89.734826 68.299692 94.129401 72.694266 
C 98.523975 77.08884 104.485133 79.558033 110.7 79.558033 
z
" style="fill:none;stroke:#000000;stroke-linejoin:miter;"/>
   </g>
   <g id="patch_3">
    <path clip-path="url(#pe8b31b995b)" d="M 152.927269 99.893614 
C 159.142135 99.893614 165.103294 97.424421 169.497868 93.029847 
C 173.892442 88.635272 176.361635 82.674114 176.361635 76.459247 
C 176.361635 70.244381 173.892442 64.283222 169.497868 59.888648 
C 165.103294 55.494074 159.142135 53.024881 152.927269 53.024881 
C 146.712402 53.024881 140.751244 55.494074 136.35667 59.888648 
C 131.962095 64.283222 129.492903 70.244381 129.492903 76.459247 
C 129.492903 82.674114 131.962095 88.635272 136.35667 93.029847 
C 140.751244 97.424421 146.712402 99.893614 152.927269 99.893614 
z
" style="fill:none;stroke:#000000;stroke-linejoin:miter;"/>
   </g>
   <g id="patch_4">
    <path clip-path="url(#pe8b31b995b)" d="M 163.356543 145.587249 
C 169.571409 145.587249 175.532568 143.118056 179.927142 138.723482 
C 184.321716 134.328908 186.790909 128.367749 186.790909 122.152883 
C 186.790909 115.938016 184.321716 109.976858 179.927142 105.582284 
C 175.532568 101.187709 169.571409 98.718517 163.356543 98.718517 
C 157.141676 98.718517 151.180518 101.187709 146.785944 105.582284 
C 142.391369 109.976858 139.922177 115.938016 139.922177 122.152883 
C 139.922177 128.367749 142.391369 134.328908 146.785944 138.723482 
C 151.180518 143.118056 157.141676 145.587249 163.356543 145.587249 
z
" style="fill:none;stroke:#000000;stroke-linejoin:miter;"/>
   </g>
   <g id="patch_5">
    <path clip-path="url(#pe8b31b995b)" d="M 134.134366 182.2307 
C 140.349233 182.2307 146.310391 179.761507 150.704965 175.366933 
C 155.09954 170.972358 157.568732 165.0112 157.568732 158.796333 
C 157.568732 152.581467 155.09954 146.620308 150.704965 142.225734 
C 146.310391 137.83116 140.349233 135.361967 134.134366 135.361967 
C 127.9195 135.361967 121.958341 137.83116 117.563767 142.225734 
C 113.169193 146.620308 110.7 152.581467 110.7 158.796333 
C 110.7 165.0112 113.169193 170.972358 117.563767 175.366933 
C 121.958341 179.761507 127.9195 182.2307 134.134366 182.2307 
z
" style="fill:none;stroke:#000000;stroke-linejoin:miter;"/>
   </g>
   <g id="patch_6">
    <path clip-path="url(#pe8b31b995b)" d="M 87.265634 182.2307 
C 93.4805 182.2307 99.441659 179.761507 103.836233 175.366933 
C 108.230807 170.972358 110.7 165.0112 110.7 158.796333 
C 110.7 152.581467 108.230807 146.620308 103.836233 142.225734 
C 99.441659 137.83116 93.4805 135.361967 87.265634 135.361967 
C 81.050767 135.361967 75.089609 137.83116 70.695035 142.225734 
C 66.30046 146.620308 63.831268 152.581467 63.831268 158.796333 
C 63.831268 165.0112 66.30046 170.972358 70.695035 175.366933 
C 75.089609 179.761507 81.050767 182.2307 87.265634 182.2307 
z
" style="fill:none;stroke:#000000;stroke-linejoin:miter;"/>
   </g>
   <g id="patch_7">
    <path clip-path="url(#pe8b31b995b)" d="M 58.043457 145.587249 
C 64.258324 145.587249 70.219482 143.118056 74.614056 138.723482 
C 79.008631 134.328908 81.477823 128.367749 81.477823 122.152883 
C 81.477823 115.938016 79.008631 109.976858 74.614056 105.582284 
C 70.219482 101.187709 64.258324 98.718517 58.043457 98.718517 
C 51.828591 98.718517 45.867432 101.187709 41.472858 105.582284 
C 37.078284 109.976858 34.609091 115.938016 34.609091 122.152883 
C 34.609091 128.367749 37.078284 134.328908 41.472858 138.723482 
C 45.867432 143.118056 51.828591 145.587249 58.043457 145.587249 
z
" style="fill:none;stroke:#000000;stroke-linejoin:miter;"/>
   </g>
   <g id="patch_8">
    <path clip-path="url(#pe8b31b995b)" d="M 68.472731 99.893614 
C 74.687598 99.893614 80.648756 97.424421 85.04333 93.029847 
C 89.437905 88.635272 91.907097 82.674114 91.907097 76.459247 
C 91.907097 70.244381 89.437905 64.283222 85.04333 59.888648 
C 80.648756 55.494074 74.687598 53.024881 68.472731 53.024881 
C 62.257865 53.024881 56.296706 55.494074 51.902132 59.888648 
C 47.507558 64.283222 45.038365 70.244381 45.038365 76.459247 
C 45.038365 82.674114 47.507558 88.635272 51.902132 93.029847 
C 56.296706 97.424421 62.257865 99.893614 68.472731 99.893614 
z
" style="fill:none;stroke:#000000;stroke-linejoin:miter;"/>
   </g>
   <g id="text_1">
    <!-- 0 -->
    <defs>
     <path d="M 31.78125 66.40625 
Q 24.171875 66.40625 20.328125 58.90625 
Q 16.5 51.421875 16.5 36.375 
Q 16.5 21.390625 20.328125 13.890625 
Q 24.171875 6.390625 31.78125 6.390625 
Q 39.453125 6.390625 43.28125 13.890625 
Q 47.125 21.390625 47.125 36.375 
Q 47.125 51.421875 43.28125 58.90625 
Q 39.453125 66.40625 31.78125 66.40625 
z
M 31.78125 74.21875 
Q 44.046875 74.21875 50.515625 64.515625 
Q 56.984375 54.828125 56.984375 36.375 
Q 56.984375 17.96875 50.515625 8.265625 
Q 44.046875 -1.421875 31.78125 -1.421875 
Q 19.53125 -1.421875 13.0625 8.265625 
Q 6.59375 17.96875 6.59375 36.375 
Q 6.59375 54.828125 13.0625 64.515625 
Q 19.53125 74.21875 31.78125 74.21875 
z
" id="DejaVuSans-30"/>
    </defs>
    <g transform="translate(105.928125 60.262729)scale(0.15 -0.15)">
     <use xlink:href="#DejaVuSans-30"/>
    </g>
   </g>
   <g id="text_2">
    <!-- 1 -->
    <defs>
     <path d="M 12.40625 8.296875 
L 28.515625 8.296875 
L 28.515625 63.921875 
L 10.984375 60.40625 
L 10.984375 69.390625 
L 28.421875 72.90625 
L 38.28125 72.90625 
L 38.28125 8.296875 
L 54.390625 8.296875 
L 54.390625 0 
L 12.40625 0 
z
" id="DejaVuSans-31"/>
    </defs>
    <g transform="translate(148.155394 80.59831)scale(0.15 -0.15)">
     <use xlink:href="#DejaVuSans-31"/>
    </g>
   </g>
   <g id="text_3">
    <!-- 2 -->
    <defs>
     <path d="M 19.1875 8.296875 
L 53.609375 8.296875 
L 53.609375 0 
L 7.328125 0 
L 7.328125 8.296875 
Q 12.9375 14.109375 22.625 23.890625 
Q 32.328125 33.6875 34.8125 36.53125 
Q 39.546875 41.84375 41.421875 45.53125 
Q 43.3125 49.21875 43.3125 52.78125 
Q 43.3125 58.59375 39.234375 62.25 
Q 35.15625 65.921875 28.609375 65.921875 
Q 23.96875 65.921875 18.8125 64.3125 
Q 13.671875 62.703125 7.8125 59.421875 
L 7.8125 69.390625 
Q 13.765625 71.78125 18.9375 73 
Q 24.125 74.21875 28.421875 74.21875 
Q 39.75 74.21875 46.484375 68.546875 
Q 53.21875 62.890625 53.21875 53.421875 
Q 53.21875 48.921875 51.53125 44.890625 
Q 49.859375 40.875 45.40625 35.40625 
Q 44.1875 33.984375 37.640625 27.21875 
Q 31.109375 20.453125 19.1875 8.296875 
z
" id="DejaVuSans-32"/>
    </defs>
    <g transform="translate(158.584668 126.291945)scale(0.15 -0.15)">
     <use xlink:href="#DejaVuSans-32"/>
    </g>
   </g>
   <g id="text_4">
    <!-- 3 -->
    <defs>
     <path d="M 40.578125 39.3125 
Q 47.65625 37.796875 51.625 33 
Q 55.609375 28.21875 55.609375 21.1875 
Q 55.609375 10.40625 48.1875 4.484375 
Q 40.765625 -1.421875 27.09375 -1.421875 
Q 22.515625 -1.421875 17.65625 -0.515625 
Q 12.796875 0.390625 7.625 2.203125 
L 7.625 11.71875 
Q 11.71875 9.328125 16.59375 8.109375 
Q 21.484375 6.890625 26.8125 6.890625 
Q 36.078125 6.890625 40.9375 10.546875 
Q 45.796875 14.203125 45.796875 21.1875 
Q 45.796875 27.640625 41.28125 31.265625 
Q 36.765625 34.90625 28.71875 34.90625 
L 20.21875 34.90625 
L 20.21875 43.015625 
L 29.109375 43.015625 
Q 36.375 43.015625 40.234375 45.921875 
Q 44.09375 48.828125 44.09375 54.296875 
Q 44.09375 59.90625 40.109375 62.90625 
Q 36.140625 65.921875 28.71875 65.921875 
Q 24.65625 65.921875 20.015625 65.03125 
Q 15.375 64.15625 9.8125 62.3125 
L 9.8125 71.09375 
Q 15.4375 72.65625 20.34375 73.4375 
Q 25.25 74.21875 29.59375 74.21875 
Q 40.828125 74.21875 47.359375 69.109375 
Q 53.90625 64.015625 53.90625 55.328125 
Q 53.90625 49.265625 50.4375 45.09375 
Q 46.96875 40.921875 40.578125 39.3125 
z
" id="DejaVuSans-33"/>
    </defs>
    <g transform="translate(129.362491 162.935396)scale(0.15 -0.15)">
     <use xlink:href="#DejaVuSans-33"/>
    </g>
   </g>
   <g id="text_5">
    <!-- 4 -->
    <defs>
     <path d="M 37.796875 64.3125 
L 12.890625 25.390625 
L 37.796875 25.390625 
z
M 35.203125 72.90625 
L 47.609375 72.90625 
L 47.609375 25.390625 
L 58.015625 25.390625 
L 58.015625 17.1875 
L 47.609375 17.1875 
L 47.609375 0 
L 37.796875 0 
L 37.796875 17.1875 
L 4.890625 17.1875 
L 4.890625 26.703125 
z
" id="DejaVuSans-34"/>
    </defs>
    <g transform="translate(82.493759 162.935396)scale(0.15 -0.15)">
     <use xlink:href="#DejaVuSans-34"/>
    </g>
   </g>
   <g id="text_6">
    <!-- 5 -->
    <defs>
     <path d="M 10.796875 72.90625 
L 49.515625 72.90625 
L 49.515625 64.59375 
L 19.828125 64.59375 
L 19.828125 46.734375 
Q 21.96875 47.46875 24.109375 47.828125 
Q 26.265625 48.1875 28.421875 48.1875 
Q 40.625 48.1875 47.75 41.5 
Q 54.890625 34.8125 54.890625 23.390625 
Q 54.890625 11.625 47.5625 5.09375 
Q 40.234375 -1.421875 26.90625 -1.421875 
Q 22.3125 -1.421875 17.546875 -0.640625 
Q 12.796875 0.140625 7.71875 1.703125 
L 7.71875 11.625 
Q 12.109375 9.234375 16.796875 8.0625 
Q 21.484375 6.890625 26.703125 6.890625 
Q 35.15625 6.890625 40.078125 11.328125 
Q 45.015625 15.765625 45.015625 23.390625 
Q 45.015625 31 40.078125 35.4375 
Q 35.15625 39.890625 26.703125 39.890625 
Q 22.75 39.890625 18.8125 39.015625 
Q 14.890625 38.140625 10.796875 36.28125 
z
" id="DejaVuSans-35"/>
    </defs>
    <g transform="translate(53.271582 126.291945)scale(0.15 -0.15)">
     <use xlink:href="#DejaVuSans-35"/>
    </g>
   </g>
   <g id="text_7">
    <!-- 6 -->
    <defs>
     <path d="M 33.015625 40.375 
Q 26.375 40.375 22.484375 35.828125 
Q 18.609375 31.296875 18.609375 23.390625 
Q 18.609375 15.53125 22.484375 10.953125 
Q 26.375 6.390625 33.015625 6.390625 
Q 39.65625 6.390625 43.53125 10.953125 
Q 47.40625 15.53125 47.40625 23.390625 
Q 47.40625 31.296875 43.53125 35.828125 
Q 39.65625 40.375 33.015625 40.375 
z
M 52.59375 71.296875 
L 52.59375 62.3125 
Q 48.875 64.0625 45.09375 64.984375 
Q 41.3125 65.921875 37.59375 65.921875 
Q 27.828125 65.921875 22.671875 59.328125 
Q 17.53125 52.734375 16.796875 39.40625 
Q 19.671875 43.65625 24.015625 45.921875 
Q 28.375 48.1875 33.59375 48.1875 
Q 44.578125 48.1875 50.953125 41.515625 
Q 57.328125 34.859375 57.328125 23.390625 
Q 57.328125 12.15625 50.6875 5.359375 
Q 44.046875 -1.421875 33.015625 -1.421875 
Q 20.359375 -1.421875 13.671875 8.265625 
Q 6.984375 17.96875 6.984375 36.375 
Q 6.984375 53.65625 15.1875 63.9375 
Q 23.390625 74.21875 37.203125 74.21875 
Q 40.921875 74.21875 44.703125 73.484375 
Q 48.484375 72.75 52.59375 71.296875 
z
" id="DejaVuSans-36"/>
    </defs>
    <g transform="translate(63.700856 80.59831)scale(0.15 -0.15)">
     <use xlink:href="#DejaVuSans-36"/>
    </g>
   </g>
  </g>
 </g>
 <defs>
  <clipPath id="pe8b31b995b">
   <rect height="163.08" width="167.4" x="27" y="25.92"/>
  </clipPath>
 </defs>
</svg>
